<?xml version="1.0" encoding="UTF-8" standalone="no"?>
<!-- Created with Inkscape (http://www.inkscape.org/) -->

<svg
   xmlns:dc="http://purl.org/dc/elements/1.1/"
   xmlns:cc="http://creativecommons.org/ns#"
   xmlns:rdf="http://www.w3.org/1999/02/22-rdf-syntax-ns#"
   xmlns:svg="http://www.w3.org/2000/svg"
   xmlns="http://www.w3.org/2000/svg"
   xmlns:sodipodi="http://sodipodi.sourceforge.net/DTD/sodipodi-0.dtd"
   xmlns:inkscape="http://www.inkscape.org/namespaces/inkscape"
   version="1.0"
   width="507"
   height="520"
   id="svg2"
   inkscape:version="0.48.2 r9819"
   sodipodi:docname="France.svg">
  <metadata
     id="metadata3079">
    <rdf:RDF>
      <cc:Work
         rdf:about="">
        <dc:format>image/svg+xml</dc:format>
        <dc:type
           rdf:resource="http://purl.org/dc/dcmitype/StillImage" />
      </cc:Work>
    </rdf:RDF>
  </metadata>
  <sodipodi:namedview
     pagecolor="#ffffff"
     bordercolor="#666666"
     borderopacity="1"
     objecttolerance="10"
     gridtolerance="10"
     guidetolerance="10"
     inkscape:pageopacity="0"
     inkscape:pageshadow="2"
     inkscape:window-width="1122"
     inkscape:window-height="726"
     id="namedview3077"
     showgrid="false"
     inkscape:zoom="1.4958028"
     inkscape:cx="271.82585"
     inkscape:cy="197.25927"
     inkscape:window-x="0"
     inkscape:window-y="0"
     inkscape:window-maximized="0"
     inkscape:current-layer="svg2" />
  <defs
     id="defs4" />
  <path
     style="fill:none;stroke-width:1;stroke-miterlimit:4;stroke-dasharray:none;stroke:#000000;stroke-opacity:1"
     d="m 204.3125,99.211183 c -24.33929,-19.747029 27.61534,-25.047787 38.04403,-36.013054 20.22154,-10.615816 -5.77168,-51.029421 27.36523,-54.5907172 22.31929,-13.9111019 19.59595,31.0920742 38.83819,14.5668502 3.9744,20.846724 26.60413,20.361071 38.18961,30.266612 -12.03865,24.659057 26.83028,10.535355 23.12396,7.691079 0.53368,20.510696 26.1369,32.846419 44.35004,31.902519 23.43746,-2.48186 28.47959,22.757828 52.74638,17.720828 17.24493,0.76542 42.35052,6.70381 21.23189,26.10764 -11.68409,20.24585 -8.18985,43.7076 -11.19626,66.63502 -8.55673,4.879 -22.57974,1.35769 -19.20508,17.44348 -17.56567,15.70939 -30.76763,38.48524 -33.0469,61.9619 11.40874,-12.38836 30.87494,-24.46158 35.09445,2.72252 8.85592,10.92937 -9.9859,19.74419 6.51613,30.32289 21.71428,17.45545 -33.10576,25.75755 -1.51339,38.82594 7.27191,14.02153 -7.84962,40.3128 19.44263,39.38923 32.62861,-3.83692 -3.27279,33.56092 -16.22411,39.64559 -8.82395,17.01151 -33.43927,35.47063 -51.31225,19.02675 -14.51071,-5.97979 -29.48577,-11.35322 -42.75081,-9.44474 -20.95662,-16.6107 -46.63435,1.24775 -63.14249,16.65041 -11.74727,10.19125 14.11401,44.90582 -12.70705,38.65917 -22.03466,9.82842 -40.68087,-2.02615 -58.84455,-16.36217 -13.26015,-2.18465 -28.37392,-12.09996 -37.40608,1.10713 -20.15832,-2.2674 -41.51952,-7.00861 -58.00037,-17.87664 -14.24831,-0.68494 -23.70786,-12.53912 -27.08051,-19.61488 -14.10061,-9.22491 18.11739,-26.47736 10.89179,-42.90287 -1.70621,-13.54294 16.28464,-36.88531 6.34563,-38.85957 3.67885,-13.43087 0.68137,-37.64541 10.36658,-44.30343 7.35548,8.14404 18.45482,34.01942 11.06745,8.55913 -5.07226,-10.94872 -30.69478,-27.85442 -19.54103,-35.8785 4.95606,1.46344 4.64921,-13.63413 -21.17162,-30.82563 -8.26259,-10.57563 -8.98511,-21.30542 -8.71384,-34.29794 -5.60168,-2.93278 1.73554,-12.0552 -12.414105,-12.05617 -8.807808,-4.86297 4.661368,-14.52276 -10.016797,-10.13744 -2.268381,-16.51253 -18.596299,6.78786 -19.003606,-10.95019 -12.696408,-13.36655 -54.211781,-12.20364 -47.658618,-29.03851 16.567634,-3.23192 -8.6502551,-12.647 8.504474,-13.72743 -5.171918,-4.54433 -24.93094409,2.03397 -11.029629,-13.42778 15.913526,-11.98527 38.746409,1.8841 54.910401,-12.65017 13.448641,6.85266 20.57976,28.5206 36.05461,14.25533 16.37267,0.69808 35.93836,7.02642 27.82578,-16.5313 0.74335,-13.87071 -25.27074,-49.255537 1.40189,-41.414123 16.06199,-1.285893 12.14009,29.705833 33.54619,21.573733 11.72361,3.55978 24.9484,3.4705 35.21551,-3.974247"
     id="France-outline"
     inkscape:connector-curvature="0"
     sodipodi:nodetypes="cccccccccccccccccccccccccccccccccccccccccccc" />
</svg>
