<?xml version="1.0" encoding="UTF-8" standalone="no"?>
<!-- Created with Inkscape (http://www.inkscape.org/) -->

<svg
   xmlns:dc="http://purl.org/dc/elements/1.1/"
   xmlns:cc="http://creativecommons.org/ns#"
   xmlns:rdf="http://www.w3.org/1999/02/22-rdf-syntax-ns#"
   xmlns:svg="http://www.w3.org/2000/svg"
   xmlns="http://www.w3.org/2000/svg"
   xmlns:sodipodi="http://sodipodi.sourceforge.net/DTD/sodipodi-0.dtd"
   xmlns:inkscape="http://www.inkscape.org/namespaces/inkscape"
   width="674.70892"
   height="628.37048"
   id="svg2"
   sodipodi:version="0.32"
   inkscape:version="0.48.2 r9819"
   sodipodi:docname="Australie.svg"
   inkscape:output_extension="org.inkscape.output.svg.inkscape"
   inkscape:export-filename="/home/tim/Desktop/australiaOutline.png"
   inkscape:export-xdpi="90"
   inkscape:export-ydpi="90"
   version="1.0">
  <defs
     id="defs4">
    <inkscape:perspective
       sodipodi:type="inkscape:persp3d"
       inkscape:vp_x="0 : 526.18109 : 1"
       inkscape:vp_y="0 : 1000 : 0"
       inkscape:vp_z="744.09448 : 526.18109 : 1"
       inkscape:persp3d-origin="372.04724 : 350.78739 : 1"
       id="perspective10" />
  </defs>
  <sodipodi:namedview
     id="base"
     pagecolor="#ffffff"
     bordercolor="#666666"
     borderopacity="1.0"
     gridtolerance="10000"
     guidetolerance="10"
     objecttolerance="10"
     inkscape:pageopacity="0.0"
     inkscape:pageshadow="2"
     inkscape:zoom="0.7"
     inkscape:cx="152.56225"
     inkscape:cy="436.99028"
     inkscape:document-units="px"
     inkscape:current-layer="g3151"
     inkscape:window-width="1440"
     inkscape:window-height="827"
     inkscape:window-x="0"
     inkscape:window-y="48"
     showgrid="false"
     inkscape:window-maximized="0" />
  <g
     inkscape:label="Layer 1"
     inkscape:groupmode="layer"
     id="layer1"
     transform="translate(-36.44302,-169.91055)">
    <g
       id="g3151"
       style="fill:none;stroke:#000000;stroke-opacity:1">
      <path
         style="fill:none;stroke:#000000;stroke-width:2.16829729;stroke-miterlimit:4;stroke-opacity:1;stroke-dashoffset:0"
         d="m 708.40262,502.01117 c -0.0803,39.68091 -14.82553,80.21281 -42.63999,108.49009 -7.17714,27.78286 -34.24648,46.10845 -34.0889,75.25365 -25.59649,-8.46382 -43.30025,13.29 -62.819,19.58138 -15.67725,-27.93996 -56.01249,-6.61305 -77.63898,-22.94556 -16.42316,-11.64179 -22.75774,-24.96457 -19.42812,-46.85833 -13.97045,1.73308 -17.66096,-18.41644 -26.04573,-29.0067 5.16755,-13.5379 7.63374,-36.4933 -8.05243,-14.94193 -12.86338,17.26339 -27.09999,27.97721 -32.89378,0.33738 -16.294,-26.592 -51.04641,-36.25012 -80.18678,-32.5177 -24.39332,0.43397 -45.24945,15.91647 -69.60113,16.42534 -20.12205,20.81275 -40.48468,36.89553 -71.41143,33.57182 -29.16984,-4.94686 -33.3011,40.72277 -63.87072,23.99566 -20.788425,2.82178 -38.563323,-12.21358 -21.412587,-26.34229 3.694857,-29.35335 -15.734134,-53.80755 -25.39846,-79.77499 -7.590909,-18.48303 -21.250011,-33.25463 -26.046012,-47.40592 23.850872,-3.95884 -12.304852,-27.7358 -5.130029,-46.8187 -11.719497,-34.70614 24.770961,-43.45035 45.977361,-61.04058 27.314837,-5.88797 52.753677,-19.21384 77.187407,-32.45396 22.07764,-15.83776 7.76944,-37.25615 21.89186,-53.24564 11.47049,13.43419 23.87585,15.48365 15.5416,-5.69513 0.28384,-12.49742 29.22511,12.46252 16.37749,-9.80382 -8.09393,-21.87776 29.65754,-28.40622 41.494,-42.59138 14.34598,-2.96561 22.44529,22.20115 40.18426,18.79547 27.70169,9.47718 -7.01048,-16.56858 13.96701,-26.6451 7.32306,-24.62359 29.47046,-23.49921 48.55643,-25.59265 0.78214,-11.39458 -27.04101,-20.29074 0.66924,-13.95775 27.70773,8.19072 50.91106,12.40293 77.7147,12.68213 13.47447,13.99055 -19.7827,21.35838 -16.00008,37.60495 -19.58623,23.18941 31.7089,34.30529 42.19973,52.24123 19.80068,22.17148 57.68191,21.95373 56.52958,-14.79818 4.99865,-32.88386 5.10324,-69.05496 24.67526,-97.4243 12.7207,20.35416 16.28411,53.99028 27.07733,71.60336 31.88642,6.20644 15.46704,50.22411 28.88253,72.49094 -5.11782,33.55062 44.88759,22.49603 42.64904,56.05567 9.0264,16.30202 12.52581,32.96203 28.23893,35.86842 2.71694,30.44348 43.05436,46.21984 34.17479,80.31172 -0.30711,4.86324 -1.18215,9.67577 -1.32439,14.5514 z"
         id="path2221"
         inkscape:connector-curvature="0"
         sodipodi:nodetypes="cccccccccccccccccccccccccccccccccccccc" />
    </g>
  </g>
  <metadata
     id="metadata3068">
    <rdf:RDF>
      <cc:Work>
        <dc:format>image/svg+xml</dc:format>
        <dc:type
           rdf:resource="http://purl.org/dc/dcmitype/StillImage" />
        <cc:license
           rdf:resource="http://creativecommons.org/licenses/publicdomain/" />
        <dc:publisher>
          <cc:Agent
             rdf:about="http://openclipart.org/">
            <dc:title>Open Clip Art Library</dc:title>
          </cc:Agent>
        </dc:publisher>
        <dc:title>Australia Outline</dc:title>
        <dc:date>2008-04-08T10:50:57</dc:date>
        <dc:description>A simple outline of Australia</dc:description>
        <dc:source>http://openclipart.org/detail/16210/australia-outline-by-mrtim</dc:source>
        <dc:creator>
          <cc:Agent>
            <dc:title>MrTim</dc:title>
          </cc:Agent>
        </dc:creator>
        <dc:subject>
          <rdf:Bag>
            <rdf:li>australia</rdf:li>
            <rdf:li>australia</rdf:li>
            <rdf:li>clip art</rdf:li>
            <rdf:li>clipart</rdf:li>
            <rdf:li>country</rdf:li>
            <rdf:li>country</rdf:li>
            <rdf:li>image</rdf:li>
            <rdf:li>media</rdf:li>
            <rdf:li>outline</rdf:li>
            <rdf:li>outline</rdf:li>
            <rdf:li>public domain</rdf:li>
            <rdf:li>svg</rdf:li>
          </rdf:Bag>
        </dc:subject>
      </cc:Work>
      <cc:License
         rdf:about="http://creativecommons.org/licenses/publicdomain/">
        <cc:permits
           rdf:resource="http://creativecommons.org/ns#Reproduction" />
        <cc:permits
           rdf:resource="http://creativecommons.org/ns#Distribution" />
        <cc:permits
           rdf:resource="http://creativecommons.org/ns#DerivativeWorks" />
      </cc:License>
    </rdf:RDF>
  </metadata>
</svg>
